{"title":"The Girl With The Dragon Tattoo[2011]ENG[DVDRip]Xvid-{RedDragon}","uid":7076106,"size":839710802,"categoryP":"video","categoryS":"movies","magnet":"?xt=urn:btih:032be054cf8ea59724635c7a9b2e8728a7ac202d&amp;dn=The+Girl+With+The+Dragon+Tattoo%5B2011%5DENG%5BDVDRip%5DXvid-%7BRedDragon%7D&amp;tr=udp%3A%2F%2Ftracker.openbittorrent.com%3A80&amp;tr=udp%3A%2F%2Fopen.demonii.com%3A1337&amp;tr=udp%3A%2F%2Ftracker.coppersurfer.tk%3A6969&amp;tr=udp%3A%2F%2Fexodus.desync.com%3A6969","seeders":1,"leechers":0,"uploader":"RedDr4gon","files":10,"time":1330851421,"description":"\n\nPlot.\n\nJournalist Mikael Blomkvist is aided in his search for a woman who has been missing for forty years by Lisbeth Salander, a young computer hacker.\n\n\nGeneral.\n\nComplete name                    : The Girl With The Dragon Tattoo[2011]ENG[DVDRip]Xvid-{RedDragon} .avi\nFormat                           : .avi\nCodec ID                         : mp42\nFile size                        : 801 MiB\nDuration                         : 2h 38mn\nOverall bit rate                 : 708 Kbps\nEncoded date                     : UTC 2012-03-04 04:38:55\nIMDB Link                           : http://www.imdb.com/title/tt1568346/\nIMDB Rating                       : 8.1/10\n\n\nVideo.\n\nID                               : 1\nFormat                           : AVC\nFormat/Info                      : Advanced Video Codec\nFormat profile                   : &lt;a class=&quot;__cf_email__&quot; href=&quot;/cdn-cgi/l/email-protection&quot; data-cfemail=&quot;84c9e5edeac4c8b7aab4&quot;&gt;[email&amp;#160;protected]&lt;/a&gt;&lt;script cf-hash='f9e31' type=&quot;text/javascript&quot;&gt;\n/* &lt;![CDATA[ */!function(){try{var t=&quot;currentScript&quot;in document?document.currentScript:function(){for(var t=document.getElementsByTagName(&quot;script&quot;),e=t.length;e--;)if(t[e].getAttribute(&quot;cf-hash&quot;))return t[e]}();if(t&amp;&amp;t.previousSibling){var e,r,n,i,c=t.previousSibling,a=c.getAttribute(&quot;data-cfemail&quot;);if(a){for(e=&quot;&quot;,r=parseInt(a.substr(0,2),16),n=2;a.length-n;n+=2)i=parseInt(a.substr(n,2),16)^r,e+=String.fromCharCode(i);e=document.createTextNode(e),c.parentNode.replaceChild(e,c)}}}catch(u){}}();/* ]]&gt; */&lt;/script&gt;\nFormat settings, CABAC           : Yes\nFormat settings, ReFrames        : 4 frames\nFormat settings, GOP             : M=3, N=16\nCodec ID                         : avc1\nCodec ID/Info                    : Advanced Video Coding\nDuration                         : 2h 38mn\nBit rate mode                    : Variable\nBit rate                         : 384 Kbps\nWidth                            : 720 pixels\nHeight                           : 302 pixels\nDisplay aspect ratio             : 2.35:1\nFrame rate mode                  : Variable\nFrame rate                       : 23.976 fps\nMinimum frame rate               : 23.974 fps\nMaximum frame rate               : 23.981 fps\nColor space                      : YUV\nChroma subsampling               : 4:2:0\nBit depth                        : 8 bits\nScan type                        : Progressive\nBits/(Pixel*Frame)               : 0.074\nStream size                      : 435 MiB (54%)\nWriting library                  : x264 core 112\n\n\nAudio.\n\nID                               : 2\nFormat                           : AC-3\nFormat/Info                      : Audio Coding 3\nMode extension                   : CM (complete main)\nCodec ID                         : ac-3\nDuration                         : 2h 38mn\nBit rate mode                    : Constant\nBit rate                         : 320 Kbps\nChannel(s)                       : 2 channels\nChannel positions                : Front: L R\nSampling rate                    : 48.0 KHz\nBit depth                        : 16 bits\nStream size                      : 362 MiB (45%)\n\n","torrent":{"xt":"urn:btih:032be054cf8ea59724635c7a9b2e8728a7ac202d","amp;dn":"The+Girl+With+The+Dragon+Tattoo%5B2011%5DENG%5BDVDRip%5DXvid-%7BRedDragon%7D","amp;tr":["udp%3A%2F%2Ftracker.openbittorrent.com%3A80","udp%3A%2F%2Fopen.demonii.com%3A1337","udp%3A%2F%2Ftracker.coppersurfer.tk%3A6969","udp%3A%2F%2Fexodus.desync.com%3A6969"],"infoHash":"032be054cf8ea59724635c7a9b2e8728a7ac202d","infoHashBuffer":{"type":"Buffer","data":[3,43,224,84,207,142,165,151,36,99,92,122,155,46,135,40,167,172,32,45]},"announce":[],"urlList":[]}}